<?xml version="1.0" encoding="utf-8"?>
<!-- Generator: Adobe Illustrator 25.2.1, SVG Export Plug-In . SVG Version: 6.00 Build 0)  -->
<svg version="1.1" id="Layer_1" xmlns="http://www.w3.org/2000/svg" xmlns:xlink="http://www.w3.org/1999/xlink" x="0px" y="0px"
	 viewBox="0 0 2098.4 280" style="enable-background:new 0 0 2098.4 280;" xml:space="preserve">
<style type="text/css">
	.st0{fill:#FFFFFF;}
</style>
<path class="st0" d="M137,9.8C65.9,9.8,8.2,67.4,8.2,138.5c0,71.1,57.6,128.8,128.7,128.8c71.1,0,128.8-57.6,128.8-128.7
	c0,0,0,0,0,0C265.7,67.5,208.1,9.9,137,9.8z M231.2,145.6h-59.8c-3.9,19.7-23.1,32.5-42.8,28.6c-19.7-3.9-32.5-23.1-28.6-42.8
	s23.1-32.5,42.8-28.6c15,3,26.5,15,28.8,30.1h59.5c3.5,0,6.3,2.8,6.3,6.3S234.7,145.6,231.2,145.6L231.2,145.6z"/>
<path class="st0" d="M1302.6,139.5c9.7,0,16.3,6.2,18.3,16.1h-37.7C1285.3,145.4,1292.7,139.5,1302.6,139.5 M1352.2,165
	c0-29.9-20.8-51.1-49.2-51.1c-30.5,0-51.9,21.6-51.9,52.1c0,31.3,22.2,52.3,52.7,52.3c22.9,0,36.9-7.6,45.3-18.1l-18.5-19
	c-5.9,6.8-14.5,10.8-23.5,10.9c-12.4,0-22-6-24.1-17.5h68.6C1351.8,172.6,1352.2,167.8,1352.2,165 M1197.1,216.5h32.3v-74.8h19.2
	v-26h-19.2v-14.6c0-8,3.7-10.9,9.5-10.9c2.9,0,8.2,1.4,12.6,3.7l6-23.3c-3.5-2.5-13.8-7.8-27.2-7.8c-20.2,0-33.2,12.1-33.2,37.1
	v15.9h-9.7v26h9.7L1197.1,216.5z M1124,189.9c-12.8,0-21.6-9.5-21.6-23.7c0-14.4,9.3-23.9,21.6-23.9c12,0,21.2,10.1,21.2,23.9
	C1145.2,180.7,1135.5,189.9,1124,189.9 M1117.2,218.4c12.2,0,21.2-4.1,27.8-12.6l0.4,0.2v10.5h30.7V115.8h-32.3v10.5l-0.4,0.2
	c-6.9-8.1-17.1-12.7-27.8-12.6c-26,0-45.9,21.4-45.9,52.3C1069.6,197.4,1089.6,218.4,1117.2,218.4 M1008.2,218.4
	c24.3,0,53.8-12.4,53.8-46.8c0-28.2-19.8-34.8-45.5-44.7c-15.9-6.2-21.2-9.9-21-16.9c0-7,5.1-11.3,13.6-11.3
	c8.2,0,17.3,3.9,29.9,13.8l19.4-25.1c-14-12-31.5-19.4-50.7-19c-27.2,0.4-48,18.7-48,43.1c0,28.8,22.3,39.4,44.5,47
	c16.5,5.6,21.6,9.1,21.6,17.1c0,6.6-4.9,12.4-16.5,12.4c-10.1,0-23.5-5.1-34.6-17.3l-20.2,24.5
	C970.1,211.1,989.5,218.3,1008.2,218.4 M864.6,218.3c27.6,0,41-13.6,41-32.4c0-19.8-12.2-25.5-34.4-33.2
	c-10.1-3.5-13.8-5.8-13.8-8.9c0-3.9,4.3-5.5,8-5.5c6.8,0,15.5,3.5,22.5,10.5l15.2-22.5c-11.8-8.7-22.9-12.6-38.1-12.6
	c-21,0-37.7,11.8-37.7,32.2c0,19.4,14.8,27.6,31.7,32.8c12.6,3.9,15.7,6,15.7,9.3c0,3.7-3.3,6-9.7,6c-9.3,0-17.9-3.7-26.4-11.3
	l-15.1,20.9C834.7,213.5,848.7,218.4,864.6,218.3 M780.1,216.6h32.1V115.8h-32.2L780.1,216.6z M796.2,103.3c11.1,0,19.4-8,19.4-18.5
	c0-10.1-8.2-18.1-19.4-18.1S777,74.8,777,84.7C777,95.2,785,103.2,796.2,103.3 M725.7,218.4c27.6,0,41-13.6,41-32.3
	c0-19.8-12.2-25.5-34.4-33.2c-10.1-3.5-13.8-5.8-13.8-8.9c0-3.9,4.3-5.5,8-5.5c6.8,0,15.4,3.5,22.4,10.5l15.2-22.5
	c-11.7-8.7-22.9-12.6-38.1-12.6c-21,0-37.7,11.8-37.7,32.2c0,19.4,14.8,27.6,31.7,32.8c12.6,3.9,15.7,6,15.7,9.3c0,3.7-3.3,6-9.7,6
	c-9.3,0-17.9-3.7-26.4-11.3l-15,20.8C695.9,213.5,709.9,218.4,725.7,218.4 M625,189.9c-12.8,0-22-10.3-22-23.7
	c0-13.8,9.1-23.7,22-23.7c12.6,0,21.8,9.7,21.8,23.7C646.8,180,637.2,189.9,625,189.9 M625,218.4c31.7,0,54.4-21.2,54.4-52.1
	c0-31.1-22.7-52.3-54.4-52.3c-32.5,0-54.6,21.6-54.6,52.3C570.4,196.7,592.5,218.4,625,218.4 M459.6,216.5h32.1v-50.7
	c0-15.7,7.4-23.3,18.5-23.3c10.5,0,16.1,4.7,16.1,21.4v52.5h32.1v-60.4c0-31.9-15.2-42.2-36.1-42.2c-11.6-0.2-22.7,4.8-30.3,13.6
	h-0.4v-11.8h-32.1V216.5z M384.2,218.2c22.7,0,44.9-7.6,58.3-17.9v-65.7h-61.4v28.4h28.4v17.3c-7.7,4.3-16.5,6.5-25.3,6.4
	c-24.9,0-39.6-19.4-39.6-43.1c0-27.2,17.3-43.1,38.1-43.1c13.1,0,25.7,5.2,35,14.4L442,94.3c-15-17.3-38.1-26.2-59.3-26.2
	c-46.8,0-74.2,33-74.2,75.4C308.5,191.2,341.9,218.2,384.2,218.2"/>
<g id="Group_3" transform="translate(-538 -889.001)">
	<g id="Group_2" transform="translate(538 889.001)">
		<g id="Group_1" transform="translate(31.995 0)">
			<circle id="Ellipse_1" class="st0" cx="1794.3" cy="143.1" r="11.9"/>
			<circle id="Ellipse_2" class="st0" cx="1876.3" cy="143.1" r="11.9"/>
			<circle id="Ellipse_3" class="st0" cx="1713.9" cy="143.1" r="11.9"/>
			<circle id="Ellipse_4" class="st0" cx="1865.4" cy="102.9" r="11.9"/>
			<circle id="Ellipse_5" class="st0" cx="1724.7" cy="183.8" r="11.9"/>
			<circle id="Ellipse_6" class="st0" cx="1835.5" cy="73" r="11.9"/>
			<circle id="Ellipse_7" class="st0" cx="1754.6" cy="213.7" r="11.9"/>
			<circle id="Ellipse_8" class="st0" cx="1794.8" cy="62.1" r="11.9"/>
			<circle id="Ellipse_9" class="st0" cx="1794.8" cy="224.5" r="11.9"/>
			<circle id="Ellipse_10" class="st0" cx="1754.6" cy="73" r="11.9"/>
			<circle id="Ellipse_11" class="st0" cx="1835.5" cy="213.7" r="11.9"/>
			<circle id="Ellipse_12" class="st0" cx="1724.7" cy="102.9" r="11.9"/>
			<circle id="Ellipse_13" class="st0" cx="1865.4" cy="183.8" r="11.9"/>
			<circle id="Ellipse_14" class="st0" cx="1760.8" cy="162.7" r="11.9"/>
			<circle id="Ellipse_15" class="st0" cx="1828.3" cy="123.5" r="11.9"/>
			<circle id="Ellipse_16" class="st0" cx="1794.3" cy="182.3" r="11.9"/>
			<circle id="Ellipse_17" class="st0" cx="1794.3" cy="103.9" r="11.9"/>
			<circle id="Ellipse_18" class="st0" cx="1828.3" cy="162.7" r="11.9"/>
			<circle id="Ellipse_19" class="st0" cx="1760.8" cy="123.5" r="11.9"/>
		</g>
		<path id="Path_1" class="st0" d="M1569.1,67.8h29.4v70.1l83.5-70.1h41.8l-71.7,59.8l79.4,91.2h-38.7l-61.9-73.7l-32,26.8v46.9
			h-29.9V67.8z"/>
		<path id="Path_2" class="st0" d="M2034.6,67.8v93.8c0,44.3-22.2,58.8-67,58.8c-12.4,0-25.3-1-37.6-3.1v-27.8
			c10.8,3.1,22.2,4.6,34,4.6c34.5,0,41.8-12.4,41.2-34.5v-67h-55.7V67.8H2034.6z"/>
		<path id="Path_3" class="st0" d="M2059.9,67.8h29.4v151h-29.4V67.8z"/>
	</g>
</g>
<rect x="1458.3" y="33.6" class="st0" width="11.3" height="219.2"/>
</svg>
